<svg id="Layer_1" data-name="Layer 1" xmlns="http://www.w3.org/2000/svg" viewBox="0 0 100 100"><defs><style>.cls-1{fill:#eeae21;}.cls-2{fill:#facc18;}</style></defs><path class="cls-1" d="M99.5,60.86,84.13,67.53a6.76,6.76,0,0,0-3.33,9.31q-2.86-.51-5.85-.91a188.59,188.59,0,0,0-25.39-1.68,188.44,188.44,0,0,0-25.38,1.68q-4.65.63-9,1.49a6.74,6.74,0,0,0,.28-12.13L.5,57.62l16.65,1.92A6.76,6.76,0,0,0,23.6,49.17L14.52,35.09,28,45.07a6.75,6.75,0,0,0,10.77-5.76l-.82-16.73L44.58,38a6.76,6.76,0,0,0,12.21.4l7.65-14.91L62.53,40.09A6.75,6.75,0,0,0,72.9,46.53L87,37.46,77,50.92a6.75,6.75,0,0,0,5.75,10.76Z"/><path class="cls-2" d="M13.81,51.49l7.7,6.58a7,7,0,0,0,2.39-2.93Zm62.83,3.63A7,7,0,0,0,78,58.65l8.21-6.92Zm-12.28-11a7.13,7.13,0,0,0,2.93,2.4l3.65-10.1Zm-35.2-7.84,3.37,9.55a7.17,7.17,0,0,0,3.55-1.34Zm20.9-5.53-1.84,10a7.09,7.09,0,0,0,3.74.61Z"/><path class="cls-2" d="M75.38,75.93A188.44,188.44,0,0,0,50,74.25a188.59,188.59,0,0,0-25.39,1.68A25.61,25.61,0,0,1,74.52,65.12,25.3,25.3,0,0,1,75.38,75.93Z"/></svg>